# xmcd
#
# Track frame offsets: 
#        150
#        18184
#        36589
#        68670
#        87806
#        108114
#        139713
#        162850
#        178981
#        203360
#        233752
#
# Disc length: 3481 seconds
#
# Revision: 0
# Processed by: cddbd v1.4PL0 Copyright (c) Steve Scherf et al.
# Submitted via: ExactAudioCopy v0.90b4
#
DISCID=840d970b
DTITLE=Van Morrison - Expo Eire
DYEAR=1999
DGENRE=Celtic
TTITLE0=Connswater
TTITLE1=Ain't That Loving You Baby ?
TTITLE2=In The Afternoon
TTITLE3=Back On Top
TTITLE4=Goin' Down Geneva
TTITLE5=Philosophers Stone
TTITLE6=Georgia
TTITLE7=Precious Time
TTITLE8=Just Like A Woman
TTITLE9=Help Me
TTITLE10=The Healing Game
EXTD=
EXTT0=
EXTT1=
EXTT2=
EXTT3=
EXTT4=
EXTT5=
EXTT6=
EXTT7=
EXTT8=
EXTT9=
EXTT10=
PLAYORDER=
